<?xml version="1.0" encoding="utf-8"?>
<!-- Generator: Adobe Illustrator 15.0.0, SVG Export Plug-In . SVG Version: 6.00 Build 0)  -->
<!DOCTYPE svg PUBLIC "-//W3C//DTD SVG 1.1//EN" "http://www.w3.org/Graphics/SVG/1.1/DTD/svg11.dtd">
<svg version="1.1" xmlns="http://www.w3.org/2000/svg" xmlns:xlink="http://www.w3.org/1999/xlink" x="0px" y="0px" width="3710px"
	 height="3710px" viewBox="0 0 3710 3710" enable-background="new 0 0 3710 3710" xml:space="preserve">
<g id="Background">
</g>
<g id="Illustration">
	<g>
		<path fill="#F4F7FA" d="M3010.942,2640.402c-574.528,734.887-1920.009,746.686-2292.479,338.482
			c-148.657-162.895-187.907-442.67-245.603-853.625c-27.774-197.827-31.752-357.289-34.11-466.696
			c-8.132-372.163-12.18-558.262,47.732-684.867c171.608-362.402,767.751-503.451,1153.071-509.994
			c26.893-0.465,54.034-0.286,81.385,0.537c451.181,13.443,960.306,201.258,1274.304,602.597
			c32.457,41.403,62.766,85.094,90.752,131.11C3372.606,1669.253,3324.379,2239.529,3010.942,2640.402z"/>
		<g>
			<g>
				<path fill="#D8DEE8" d="M1890.904,3003.266c-123.463-22.506-154.02-287.637-157.896-325.345
					c-9.702-94.388-21.728-211.378,46.536-310.36c98.669-143.072,266.667-105.805,306.752-224.604
					c24.637-73.009-35.995-95.438-38.855-235.029c-0.82-40.063-3.784-184.692,97.354-301.604
					c72.12-83.366,163.791-114.054,212.274-125.938c15.802-39.947,34.178-100.512,33.751-174.395
					c-0.685-118.531-49.146-164.277-24.001-227.129c28.816-72.029,131.541-109.641,209.715-108.912
					c208.229,1.94,322.329,276.664,330.144,296.204c20.194,50.499,84.177,210.489,10.951,326.923
					c-57.849,91.984-156.132,84.911-171.117,160.534c-14.953,75.454,78.468,104.834,100.562,220.006
					c18.865,98.342-22.641,215.614-96.097,281.647c-122.698,110.302-272.884,22.214-338.577,113.604
					c-76.48,106.398,77.822,294.326,9.578,357.737c-64.776,60.188-234.149-80.932-316.668-10.641
					c-59.649,50.81-4.328,152.817-84.779,234.461C2015.713,2955.316,1955.34,3015.012,1890.904,3003.266z"/>
				<path opacity="0.5" fill="#F4F7FA" d="M2539.427,1032.491c79.112,18.245,115.726,256.531,73.923,460.548
					c-28.784,140.48-69.829,143.1-175.256,380.908c-142.879,322.291-89.789,367.773-193.68,480.389
					c-142.564,154.537-288.778,119.021-367.234,267.67c-53.102,100.612-37.739,214.687-14.688,298.521
					c-29.45-45.193-75.215-128.837-87.975-242.072c-8.312-73.763-23.345-207.167,53.399-288.359
					c92.091-97.431,227.738-25.944,290.942-116.526c35.83-51.354,3.63-90.661-4.659-266.039
					c-8.36-176.907-12.541-265.361,35.345-340.841c85.42-134.646,239.016-79.75,291.578-196.568
					c54.492-121.106-83.887-239.44-11.898-362.153C2452.436,1068.398,2500.389,1023.488,2539.427,1032.491z"/>
			</g>
			<g>
				<linearGradient id="SVGID_1_" gradientUnits="userSpaceOnUse" x1="1213.7666" y1="1858.4219" x2="2557.2148" y2="1858.4219">
					<stop  offset="0" style="stop-color:#FFC444"/>
					<stop  offset="0.9964" style="stop-color:#F36F56"/>
				</linearGradient>
				<path fill="url(#SVGID_1_)" d="M2375.988,2971.29c135.248-24.653,168.721-315.092,172.967-356.399
					c10.629-103.396,23.803-231.554-50.977-339.984c-108.088-156.729-292.12-115.903-336.033-246.041
					c-26.988-79.979,39.432-104.547,42.564-257.463c0.898-43.888,4.146-202.322-106.646-330.393
					c-79.003-91.324-179.425-124.94-232.536-137.959c-17.311-43.759-37.44-110.106-36.973-191.041
					c0.75-129.845,53.837-179.958,26.292-248.809c-31.567-78.904-144.097-120.106-229.732-119.308
					c-228.105,2.125-353.096,303.071-361.656,324.477c-22.123,55.318-92.212,230.581-11.997,358.128
					c63.37,100.764,171.034,93.016,187.451,175.857c16.38,82.656-85.958,114.841-110.161,241.006
					c-20.665,107.728,24.803,236.195,105.27,308.531c134.41,120.83,298.931,24.335,370.894,124.449
					c83.781,116.554-85.25,322.419-10.492,391.883c70.959,65.934,256.5-88.656,346.894-11.656
					c65.344,55.66,4.742,167.404,92.871,256.841C2239.268,2918.765,2305.403,2984.158,2375.988,2971.29z"/>
				<path opacity="0.5" fill="#F4F7FA" d="M1665.564,812.404c-86.663,19.986-126.772,281.017-80.979,504.508
					c31.531,153.889,76.494,156.759,191.983,417.267c156.517,353.053,98.36,402.877,212.167,526.242
					c156.172,169.288,316.342,130.381,402.287,293.219c58.17,110.216,41.342,235.179,16.09,327.015
					c32.261-49.507,82.394-141.134,96.371-265.178c9.105-80.804,25.573-226.941-58.496-315.884
					c-100.881-106.73-249.477-28.421-318.713-127.648c-39.251-56.256-3.977-99.315,5.104-291.433
					c9.159-193.793,13.738-290.69-38.718-373.375c-93.573-147.499-261.83-87.362-319.41-215.331
					c-59.694-132.666,91.893-262.295,13.034-396.721C1760.858,851.739,1708.33,802.542,1665.564,812.404z"/>
			</g>
			<g>
				
					<linearGradient id="SVGID_2_" gradientUnits="userSpaceOnUse" x1="2202.3877" y1="2145.7813" x2="3658.4277" y2="2145.7813" gradientTransform="matrix(0.9976 0.0688 -0.0688 0.9976 -284.7024 -59.6834)">
					<stop  offset="0" style="stop-color:#FF9085"/>
					<stop  offset="1" style="stop-color:#FB6FBB"/>
				</linearGradient>
				<path fill="url(#SVGID_2_)" d="M1833.052,3018.695c-73.869-12.691-114.688-194.711-98.867-335.898
					c6.121-54.616,12.209-108.948,51.951-158.445c67.074-83.537,144.597-46.927,203.591-114.304
					c87.116-99.493-21.281-248.579,62.568-329.465c61.677-59.499,139.866,2.323,213.472-62.155
					c85.384-74.796,33.373-204.598,106.839-237.628c42.674-19.186,71.46,19.56,187.016,11.409
					c45.206-3.189,67.809-4.784,88.486-17.249c72.502-43.701,37.458-142.567,95.463-203.151
					c63.852-66.689,202.144-46.982,284.398-10.145c147.382,66.002,213.711,231.266,215.963,362.709
					c0.481,28.158,0.709,211.547-130.766,308.654c-95.604,70.615-224.141,68.494-244.985,68.15
					c-81.218-1.34-97.487-24.916-126.32-7.864c-83.343,49.288,32.933,257.886-73.565,390.949
					c-43.48,54.327-117.558,87.894-183.262,90.903c-106.227,4.867-151.973-71.899-208.419-45.556
					c-73.024,34.083-28.853,177.688-108.913,220.007c-56.645,29.94-100.164-30.633-195.668-5.387
					C1887.25,2966.643,1876.793,3026.21,1833.052,3018.695z"/>
				<path opacity="0.5" fill="#F4F7FA" d="M1837.208,2885.495c33.698,8.351,51.642-83.175,166.659-203.341
					c125.6-131.223,193.122-114.978,310.039-233.031c133.477-134.773,71.885-182.609,183.73-286.965
					c151.588-141.438,280.435-68.223,462.736-233.813c54.684-49.672,127.479-117.717,115.631-201.205
					c-10.273-72.392-82.838-146.909-165.119-147.063c-3.443-0.006-72.639,0.951-116.799,54.137
					c-54.173,65.244-7.58,133.094-57.813,182.576c-26.312,25.917-67.34,28.921-149.396,34.93
					c-118.017,8.641-137.678-16.318-169.964,5.244c-72.954,48.723-0.019,194.496-74.108,254.948
					c-63.608,51.898-155.174-24.701-210.902,25.036c-67.256,60.027,37.5,197.146-31.809,297.437
					c-59.674,86.349-171.244,33.773-251.643,123.989C1753.51,2664.907,1788.582,2873.446,1837.208,2885.495z"/>
			</g>
			<g>
				
					<linearGradient id="SVGID_3_" gradientUnits="userSpaceOnUse" x1="2286.6514" y1="2064.8857" x2="1436.3114" y2="3007.5088" gradientTransform="matrix(0.9816 -0.191 0.191 0.9816 328.3643 373.1784)">
					<stop  offset="0" style="stop-color:#FFC444"/>
					<stop  offset="0.9964" style="stop-color:#F36F56"/>
				</linearGradient>
				<path fill="url(#SVGID_3_)" d="M2264.551,2942.909c56.104,3.915,63.714-99.168,161.681-130.037
					c108.367-34.147,177.151,67.378,252.646,28.585c84.828-43.587,37.055-191.843,132.318-247.49
					c65.083-38.02,110.407,17.729,192.257-17.156c85.314-36.362,168.6-153.416,135.841-268.208
					c-27.331-95.769-125.876-156.483-205.181-157.062c-64.877-0.473-83.304,39.544-140.046,27.752
					c-70.693-14.691-69.019-82.4-143.09-112.891c-73.701-30.337-174.457-4.094-229.908,56.102
					c-46.107,50.056-50.814,112.648-54.918,167.244c-11.018,146.565,55.877,203.028,20.15,259.348
					c-44.578,70.271-166.705,10.709-222.367,80.383C2094.275,2716.677,2183.854,2937.279,2264.551,2942.909z"/>
				<path opacity="0.5" fill="#F4F7FA" d="M2237.326,2835.086c20.527,4.089,26.578-62.697,91.105-118.466
					c73.98-63.938,129.664-31.151,212.436-81.64c102.564-62.561,63.587-141.278,154.896-204.75
					c127.999-88.975,287.02,8.41,329.988-64.228c25.104-42.439-3.087-119.797-48.377-145.04
					c-48.33-26.939-82.572,24.177-165.537,12.073c-77.704-11.337-82.066-61.196-177.955-86.241
					c-46.748-12.21-108.154-28.248-147.386,1.824c-76.868,58.922-35.144,269.223-22.405,333.418
					c11.717,59.058,22.582,81.994,7.208,106.045c-40.269,62.992-173.833-2.02-235.624,66.007
					C2183.994,2710.984,2210.807,2829.803,2237.326,2835.086z"/>
			</g>
		</g>
		<g>
			<g>
				<path fill="#26264F" d="M3263.885,2955.089l-2748.022-23.424v69.308c0,18.811,11.986,34.807,28.218,37.657l777.059,136.479
					c9.222,1.62,18.574,2.05,27.879,1.281l1885.003-155.608c16.83-1.389,29.863-17.434,29.863-36.762V2955.089z"/>
				<g>
					<path fill="#26264F" d="M2266.639,2844.021l-1722.359,126.79c-30.821,2.269-55.88-21.839-55.88-53.853V1634.366
						c0-32.013,25.059-57.966,55.88-57.966h1722.359c25.391,0,45.921,23.46,45.921,52.4v1159.44
						C2312.56,2817.18,2292.029,2842.151,2266.639,2844.021z"/>
					<linearGradient id="SVGID_4_" gradientUnits="userSpaceOnUse" x1="515.8623" y1="2273.6787" x2="2340.0225" y2="2273.6787">
						<stop  offset="0" style="stop-color:#444B8C"/>
						<stop  offset="0.9964" style="stop-color:#26264F"/>
					</linearGradient>
					<path fill="url(#SVGID_4_)" d="M2294.102,2844.021l-1722.359,126.79c-30.821,2.269-55.88-21.839-55.88-53.853V1634.366
						c0-32.013,25.059-57.966,55.88-57.966h1722.359c25.392,0,45.921,23.46,45.921,52.4v1159.44
						C2340.022,2817.18,2319.493,2842.151,2294.102,2844.021z"/>
					<linearGradient id="SVGID_5_" gradientUnits="userSpaceOnUse" x1="590.7842" y1="2261.6914" x2="2278.334" y2="2261.6914">
						<stop  offset="0" style="stop-color:#AA80F9"/>
						<stop  offset="0.9964" style="stop-color:#6165D7"/>
					</linearGradient>
					<path fill="url(#SVGID_5_)" d="M2240.445,2762.278L636.247,2872.412c-25.081,1.722-45.463-18.065-45.463-44.2V1705.301
						c0-26.135,20.382-47.41,45.463-47.518l1604.198-6.916c20.945-0.09,37.889,19.134,37.889,42.938v1022.771
						C2278.334,2740.379,2261.391,2760.841,2240.445,2762.278z"/>
					<path fill="#FFFFFF" d="M1493.75,1611.481c0,11.917-8.865,21.606-19.812,21.641c-10.961,0.035-19.855-9.62-19.855-21.564
						s8.895-21.634,19.855-21.642C1484.886,1589.908,1493.75,1599.563,1493.75,1611.481z"/>
					<path opacity="0.48" fill="#FFFFFF" d="M571.736,2970.811l1713.645-126.148l8.721-0.642
						c11.65-0.857,22.244-6.616,30.335-15.353c-123.315-6.749-199.909-50.51-249.318-95.729
						c-99.223-90.808-82.013-180.357-189.013-240.062c-133.458-74.47-238.396,19.892-339.668-73.21
						c-61.397-56.445-31.254-98.536-106.803-182.886c-83.676-93.425-138.154-62.021-222.247-146.103
						c-106.329-106.316-53.15-189.034-144.74-265.366c-111.112-92.603-230.94-6.894-336.71-95.702
						c-45.619-38.303-70.652-93.989-83.722-153.212h-80.473c-30.821,0-55.881,25.953-55.881,57.966v1282.592
						C515.862,2948.969,540.917,2973.075,571.736,2970.811z"/>
				</g>
				<linearGradient id="SVGID_6_" gradientUnits="userSpaceOnUse" x1="515.8623" y1="2975.0742" x2="3263.8848" y2="2975.0742">
					<stop  offset="0" style="stop-color:#444B8C"/>
					<stop  offset="0.9964" style="stop-color:#26264F"/>
				</linearGradient>
				<path fill="url(#SVGID_6_)" d="M2362.75,2836.988L515.862,2970.446l805.277,141.435c9.222,1.619,18.574,2.05,27.879,1.281
					l1914.866-158.073l-871.756-117.194C2382.379,2836.584,2372.547,2836.28,2362.75,2836.988z"/>
				<polygon fill="#26264F" points="785.352,2971.594 2322.941,2858.831 2798.811,2922.288 1274.467,3042.828 				"/>
			</g>
		</g>
		<g>
			<g>
				<g>
					<path fill="#FFFFFF" d="M3069.849,711.007v838.717c0,38.68-26.317,70.689-59.409,71.48l-275.689,6.739l-850.348,20.794
						c-34.579,0.84-66.778-27.293-70.632-64.368c-0.307-2.825-4.11-5.656-4.11-8.575V682.207c0-15.084,7.78-28.975,14.761-40.542
						c0.198-0.329,2.226-0.6,2.422-0.907c12.156-19.463,33.561-31.887,56.749-31.261l128.994,3.42l997.636,26.463
						C3043.314,640.26,3069.849,672.307,3069.849,711.007z"/>
					<linearGradient id="SVGID_7_" gradientUnits="userSpaceOnUse" x1="1838.6563" y1="1129.1201" x2="3051.6191" y2="1129.1201">
						<stop  offset="0" style="stop-color:#FFFFFF"/>
						<stop  offset="0.9964" style="stop-color:#EBEFF2"/>
					</linearGradient>
					<path fill="url(#SVGID_7_)" d="M1884.518,1624.984c-25.262,0.588-45.861-21.691-45.861-49.665V682.826
						c0-27.974,20.6-50.209,45.861-49.568l1126.345,28.568c22.495,0.571,40.757,22.441,40.757,48.755v839.523
						c0,26.313-18.262,48.146-40.757,48.669L1884.518,1624.984z"/>
					<path fill="#D8DEE8" d="M3010.862,639.393l-1126.345-29.879c-37.193-0.987-67.445,31.614-67.445,72.819v53.52l1253.605,25.404
						v-50.24C3070.678,672.336,3043.944,640.271,3010.862,639.393z"/>
					<path fill="#FFFFFF" d="M1937.075,675.839c0,12.273-9.804,22.004-21.911,21.735c-12.122-0.27-21.959-10.459-21.959-22.758
						s9.837-22.03,21.959-21.734C1927.271,653.378,1937.075,663.566,1937.075,675.839z"/>
					<path fill="#FFFFFF" d="M2013.66,677.625c0,12.227-9.73,21.922-21.746,21.655c-12.031-0.268-21.794-10.417-21.794-22.67
						s9.763-21.948,21.794-21.654C2003.93,655.249,2013.66,665.398,2013.66,677.625z"/>
					<path fill="#FFFFFF" d="M2089.671,679.397c0,12.181-9.657,21.841-21.583,21.576c-11.941-0.265-21.631-10.376-21.631-22.583
						s9.689-21.866,21.631-21.574C2080.014,657.106,2089.671,667.217,2089.671,679.397z"/>
					<polygon fill="#D8DEE8" points="3000.871,1551.497 1895.701,1574.491 1895.701,871.583 3000.871,886.706 					"/>
					<g opacity="0.5">
						<polygon fill="#FFFFFF" points="2486.629,808.987 1895.701,798.79 1895.701,836.76 2486.629,845.855 						"/>
						<polygon fill="#FFFFFF" points="2937.057,816.759 2937.057,852.789 3000.871,853.771 3000.871,817.86 						"/>
					</g>
					<g opacity="0.5">
						<path fill="#FFFFFF" d="M2741.943,1627.94l-850.446,20.796c-34.579,0.84-67.042-27.289-70.896-64.364
							c-0.022-0.824-3.959-1.604-3.959-2.428V681.806c0-14.906,7.813-28.64,14.554-40.146c0.197-0.329,2.329-0.598,2.525-0.905
							c12.09-20,33.766-32.815,57.215-32.183l128.304,3.407c0.087,0.312,0.436,0.629,0.544,0.941
							c2.391,7.816,5.139,15.75,8.021,23.795c11.357,31.896,26.588,65.348,46.969,98.291c1.242,2.031,2.537,4.02,3.822,6.008
							c15.013,23.523,30.959,43.843,47.617,61.641c13.309,14.242,27.08,26.85,41.188,38.176
							c16.533,13.304,33.557,24.799,50.891,35.078c124.869,74.083,265.104,83.761,358.129,232.295
							c79.727,127.301,22.623,194.109,99.73,388.871c8.382,21.177,17.389,41.408,26.936,60.756
							c8.119,16.523,16.617,32.407,25.453,47.673C2732.914,1613.145,2737.409,1620.63,2741.943,1627.94z"/>
					</g>
				</g>
				<g>
					<defs>
						<polygon id="SVGID_8_" points="2940.688,1554.805 1959.766,1568.967 1959.766,553.869 2940.688,581.754 						"/>
					</defs>
					<clipPath id="SVGID_9_">
						<use xlink:href="#SVGID_8_"  overflow="visible"/>
					</clipPath>
					<g clip-path="url(#SVGID_9_)">
						<g>
							<linearGradient id="SVGID_10_" gradientUnits="userSpaceOnUse" x1="2743.6689" y1="683.25" x2="2510.7273" y2="1139.4274">
								<stop  offset="0" style="stop-color:#AB316D"/>
								<stop  offset="1" style="stop-color:#792D3D"/>
							</linearGradient>
							<path fill="url(#SVGID_10_)" d="M2291.943,1544.725c-191.876-29.553-234.602-51.364-254.418-92.081
								c-28.832-59.24-7.859-155.656,41.379-214.98c43.035-51.85,96.547-61.937,94.986-97.805
								c-1.283-29.509-37.943-33.465-64.926-89.197c-7.883-16.28-23.195-47.909-16.526-85.795
								c9.757-55.43,59.429-83.89,63.452-86.112c51.752-28.588,81.182,5.58,119.974-20.1c48.399-32.04,26.478-101.33,71.768-120.389
								c32.874-13.833,74.786,9.994,85.702,16.2c36.353,20.666,32.537,40.824,63.173,53.744
								c35.865,15.126,52.958-7.567,94.473,2.349c34.197,8.168,58.908,33.403,79.038,58.685
								c45.142,56.694,22.718,89.736,56.02,159.217c46.744,97.525,117.037,86.688,129.473,164.425
								c6.497,40.622-10.193,59.056,2.625,121.271c8.65,41.984,19.529,49.453,21.459,74.148
								c5.543,70.99-74.672,134.183-89.692,145.338C2693.977,1604.883,2560.191,1586.04,2291.943,1544.725z"/>
							<linearGradient id="SVGID_11_" gradientUnits="userSpaceOnUse" x1="2749.2295" y1="674.478" x2="2513.9348" y2="1135.2632">
								<stop  offset="0" style="stop-color:#AB316D"/>
								<stop  offset="1" style="stop-color:#792D3D"/>
							</linearGradient>
							<path opacity="0.7" fill="url(#SVGID_11_)" d="M2597.062,1352.563c-125.585-8.788-211.113,111.085-245.156,81.69
								c-32.338-27.922,58.81-123.484,27.733-234.468c-30.564-109.163-151.05-132.66-141.495-194.351
								c10.805-69.759,171.868-85.813,168.101-137.049c-2.223-30.235-58.994-37.562-70.37-85.825
								c-3.089-13.107-2.06-26.024,1.167-38.058c-31.336,24.903-17.087,84.965-61.176,114.152
								c-38.793,25.68-68.223-8.488-119.975,20.1c-4.023,2.222-53.695,30.682-63.452,86.112
								c-6.669,37.886,8.644,69.516,16.526,85.795c26.982,55.731,63.643,59.688,64.926,89.197
								c1.561,35.868-51.951,45.955-94.986,97.805c-49.238,59.325-70.211,155.74-41.379,214.98
								c19.816,40.717,62.543,62.528,254.418,92.081c268.248,41.315,402.033,60.158,497.959-11.083
								c37.021-27.496,80.557-74.105,89.883-115.284c-18.617,17.685-36.894,26.364-53.957,29.72
								C2746.115,1463.754,2709.148,1360.406,2597.062,1352.563z"/>
						</g>
						<linearGradient id="SVGID_12_" gradientUnits="userSpaceOnUse" x1="2515.165" y1="2148.2012" x2="2403.4919" y2="1338.5706">
							<stop  offset="0.0036" style="stop-color:#E38DDD"/>
							<stop  offset="1" style="stop-color:#9571F6"/>
						</linearGradient>
						<path fill="url(#SVGID_12_)" d="M2077.934,1803.589c-29.091-72.933-11.352-188.115-7.615-212.378
							c14.571-94.613,48.871-153.314,61.355-174.155c85.363-142.522,214.493-141.47,311.358-140.681
							c47.741,0.389,97.091-0.685,157.269,21.549c0,0,47.491,17.547,87.574,46.799c119.369,87.112,213.271,372.334,117.333,481.809
							c-61.325,69.978-124.368-17.084-399.76,29.56c-111.431,18.874-229.347,49.703-299.638-11.184
							C2094.167,1834.822,2085.011,1821.334,2077.934,1803.589z"/>
						<linearGradient id="SVGID_13_" gradientUnits="userSpaceOnUse" x1="2443.9609" y1="1462.3994" x2="2427.6152" y2="1107.6995">
							<stop  offset="0" style="stop-color:#FFC444"/>
							<stop  offset="0.9964" style="stop-color:#F36F56"/>
						</linearGradient>
						<path fill="url(#SVGID_13_)" d="M2392.258,1105.529c0,0,20.418,152.753-83.338,183.282
							c-12.017,3.536-15.705,19.387-6.605,28.234l127.869,124.333c7.703,7.49,19.838,6.861,26.92-1.386l114.572-133.422
							c7.477-8.707,4.203-22.537-6.256-26.557c-36.672-14.098-102.592-55.304-88.736-166.704L2392.258,1105.529z"/>
						<linearGradient id="SVGID_14_" gradientUnits="userSpaceOnUse" x1="2426.5078" y1="1150.522" x2="2432.7695" y2="910.7897">
							<stop  offset="0" style="stop-color:#FFC444"/>
							<stop  offset="0.9964" style="stop-color:#F36F56"/>
						</linearGradient>
						<path fill="url(#SVGID_14_)" d="M2328.666,1020.173c0.033,1.677,28.021,151.212,99.607,151.38
							c67.406,0.158,92.916-108.943,101.207-159.841c0.881-8.659,1.762-17.317,2.642-25.974c-4.563,1.521-15.887,4.581-29.44,0.589
							c-3.078-0.906-22.597-6.655-29.852-23.593c-8.087-18.881,6.778-33.639-1.689-50.167c-4.913-9.59-14.813-14.19-22.375-16.576
							c5.037,7.786,14.805,25.144,9.283,40.722c-3.711,10.466-14.102,20.423-37.313,26.299
							C2354.104,979.876,2328.01,986.305,2328.666,1020.173z"/>
						<linearGradient id="SVGID_15_" gradientUnits="userSpaceOnUse" x1="2328.1572" y1="1125.3345" x2="2333.9243" y2="904.5357">
							<stop  offset="0" style="stop-color:#FFC444"/>
							<stop  offset="0.9964" style="stop-color:#F36F56"/>
						</linearGradient>
						<path fill="url(#SVGID_15_)" d="M2346.246,1038.186c0,0-37.096-32.946-40.335-12.993
							c-6.758,41.617,25.006,64.809,42.208,52.476C2365.295,1065.353,2346.246,1038.186,2346.246,1038.186z"/>
						<linearGradient id="SVGID_16_" gradientUnits="userSpaceOnUse" x1="2522.1299" y1="1130.9897" x2="2527.8066" y2="913.6547">
							<stop  offset="0" style="stop-color:#FFC444"/>
							<stop  offset="0.9964" style="stop-color:#F36F56"/>
						</linearGradient>
						<path fill="url(#SVGID_16_)" d="M2508.402,1039.496c0,0,36.463-32.021,39.637-12.215
							c6.613,41.275-24.541,63.846-41.484,51.398C2489.588,1066.213,2508.402,1039.496,2508.402,1039.496z"/>
					</g>
				</g>
				<g>
					<path fill="#FFFFFF" d="M2320.634,1489.063c0,21.828-17.036,39.746-38.085,40.02c-21.088,0.275-38.21-17.256-38.21-39.156
						c0-21.9,17.122-39.819,38.21-40.022C2303.598,1449.703,2320.634,1467.234,2320.634,1489.063z"/>
					<path fill="#FFFFFF" d="M2497.574,1487.06c0,21.663-16.777,39.442-37.507,39.712c-20.767,0.271-37.629-17.128-37.629-38.861
						s16.862-39.514,37.629-39.713C2480.797,1447.998,2497.574,1465.397,2497.574,1487.06z"/>
					<path fill="#FFFFFF" d="M2671.842,1485.086c0,21.499-16.525,39.143-36.941,39.409c-20.454,0.266-37.063-17.002-37.063-38.57
						s16.608-39.213,37.063-39.41C2655.316,1446.318,2671.842,1463.588,2671.842,1485.086z"/>
				</g>
			</g>
			<g>
				<path fill="#FFFFFF" d="M2895.307,1941.203v689.857c0,31.837-21.607,59.274-49.011,61.229l-227.497,16.267l-0.245,0.035
					l-696.349,49.779c-4.572,0.314-9.043,0.035-13.336-0.838c-0.803-0.14-1.572-0.349-2.373-0.523
					c-1.537-0.419-3.073-0.873-4.572-1.396c-1.502-0.559-2.969-1.152-4.434-1.85c-2.166-1.048-4.26-2.199-6.25-3.526
					c-1.325-0.872-2.617-1.814-3.84-2.792c-1.256-1.013-2.479-2.06-3.631-3.177c-9.25-8.937-15.533-21.469-17.034-35.851
					c-0.243-2.27-1.222-4.644-1.222-7.018v-728.047c0-0.663,0-1.291,0.033-1.954c0.036-0.769,0.105-1.501,0.141-2.27
					c0.908-10.577,4.748-20.456,9.739-28.974c0.14-0.279,0.733-0.523,0.908-0.768c7.996-13.275,20.589-23.007,35.077-26.494
					c1.697-0.424,3.423-0.767,5.172-1.014c1.781-0.279,3.561-0.228,5.375-0.297l104.795-2.775h0.07l226.171-6.65l593.231-17.026
					c0.629,0,1.222-0.083,1.85-0.013c0.734,0,1.467-0.024,2.199,0.045c0.697,0.035,1.431,0.094,2.129,0.163
					C2876.807,1888.189,2895.307,1911.811,2895.307,1941.203z"/>
				<linearGradient id="SVGID_17_" gradientUnits="userSpaceOnUse" x1="1884.8867" y1="2321.3086" x2="2880.6143" y2="2321.3086">
					<stop  offset="0" style="stop-color:#FFFFFF"/>
					<stop  offset="0.9964" style="stop-color:#EBEFF2"/>
				</linearGradient>
				<path fill="url(#SVGID_17_)" d="M1922.191,2739.029c-20.553,1.447-37.305-15.914-37.305-38.705v-727.131
					c0-22.791,16.752-41.825,37.305-42.432l924.656-27.244c18.634-0.549,33.767,16.613,33.767,38.256v690.516
					c0,21.643-15.133,40.315-33.767,41.628L1922.191,2739.029z"/>
				<path fill="#D8DEE8" d="M2846.848,1885.072l-924.656,26.338c-30.256,0.862-54.854,28.772-54.854,62.337v43.596l1029.074-34.738
					v-41.329C2896.412,1909.456,2874.254,1884.292,2846.848,1885.072z"/>
				<path fill="#FFFFFF" d="M1964.975,1963.133c0,10.007-7.983,18.375-17.841,18.692c-9.867,0.316-17.874-7.553-17.874-17.578
					c0-10.024,8.007-18.394,17.874-18.692C1956.991,1945.256,1964.975,1953.127,1964.975,1963.133z"/>
				<path fill="#FFFFFF" d="M2027.382,1961.187c0,9.976-7.933,18.316-17.728,18.631c-9.805,0.314-17.761-7.53-17.761-17.523
					s7.956-18.335,17.761-18.632C2019.449,1943.365,2027.382,1951.212,2027.382,1961.187z"/>
				<path fill="#FFFFFF" d="M2089.395,1959.253c0,9.943-7.883,18.257-17.616,18.569c-9.743,0.313-17.647-7.508-17.647-17.47
					s7.904-18.276,17.647-18.571C2081.512,1941.487,2089.395,1949.309,2089.395,1959.253z"/>
				<polygon fill="#D8DEE8" points="2838.573,2635.438 1931.291,2697.445 1931.291,2124.518 2838.573,2088.861 				"/>
				<g opacity="0.5">
					<polygon fill="#FFFFFF" points="2414.452,2047.65 1931.291,2065.186 1931.291,2096.134 2414.452,2077.841 					"/>
					<polygon fill="#FFFFFF" points="2785.755,2034.175 2785.755,2063.783 2838.573,2061.783 2838.573,2032.258 					"/>
				</g>
				<g opacity="0.5">
					<path fill="#FFFFFF" d="M2618.833,2708.627l-696.628,49.744c-4.572,0.314-9.043,0.035-13.336-0.838
						c-0.803-0.14-1.572-0.349-2.373-0.523c-1.537-0.419-3.073-0.873-4.572-1.396c-1.502-0.559-2.969-1.152-4.434-1.85
						c-2.166-1.048-4.26-2.199-6.25-3.526c-1.325-0.872-2.617-1.814-3.84-2.792c-1.256-1.013-2.479-2.06-3.631-3.177
						c-9.285-8.901-15.639-21.434-17.14-35.816c0-0.663-1.116-1.361-1.116-2.024v-733.074c0-0.663,0-1.291,0.033-1.954
						c0.036-0.769,0.105-1.501,0.141-2.27c0.838-10.577,4.713-20.421,9.565-28.974c0.14-0.279,0.839-0.523,0.977-0.768
						c9.845-16.826,26.95-28.207,46.01-28.765l103.905-2.933c0.069,0.244-0.053,0.488-0.053,0.733v0.034
						c3.49,6.284,4.486,12.603,6.824,19.025c9.25,25.518,21.825,52.152,38.479,78.125c1.011,1.605,2.15,3.177,3.197,4.747
						c12.254,18.536,25.284,34.42,38.898,48.209c10.857,11.065,22.156,20.77,33.675,29.393
						c13.511,10.158,27.415,18.815,41.588,26.425c0,0.035,0.04,0.035,0.04,0.035c21.014,11.346,42.555,20.422,64.199,28.729
						c83.674,32.116,168.783,52.537,229.523,146.021c57.982,89.226,28.033,144.206,64.058,263.732
						c3.771,12.497,8.238,25.728,13.648,39.761c1.397,3.665,2.864,7.4,4.399,11.205c6.879,17.035,14.313,33.268,22.168,48.767
						c6.701,13.23,13.717,25.938,20.979,38.12c3.631,6.074,7.295,12.009,11.031,17.803
						C2618.799,2708.592,2618.833,2708.592,2618.833,2708.627z"/>
				</g>
				<g>
					<defs>
						<polygon id="SVGID_18_" points="2787.092,2639.271 1984.201,2689.04 1984.201,1841.631 2787.092,1820.688 						"/>
					</defs>
					<clipPath id="SVGID_19_">
						<use xlink:href="#SVGID_18_"  overflow="visible"/>
					</clipPath>
					<g clip-path="url(#SVGID_19_)">
						<linearGradient id="SVGID_20_" gradientUnits="userSpaceOnUse" x1="2329.7559" y1="1845.8818" x2="2418.0103" y2="3252.76">
							<stop  offset="0.0036" style="stop-color:#F36F56"/>
							<stop  offset="1" style="stop-color:#FFC444"/>
						</linearGradient>
						<path fill="url(#SVGID_20_)" d="M2047.323,2859.289c-27.991-72.945,11.495-198.084,36.302-255.075
							c72.004-165.419,203.153-177.632,309.586-187.543c103.605-9.648,202.744-18.881,274.762,98.382
							c46.803,76.207,89.672,218.017,61.101,296.895c-30.127,83.17-114.2,26.243-316.653,39.339
							C2185.578,2865.959,2082.182,2950.129,2047.323,2859.289z"/>
						<linearGradient id="SVGID_21_" gradientUnits="userSpaceOnUse" x1="2386.7734" y1="2487.0313" x2="2383.915" y2="2312.6743">
							<stop  offset="0" style="stop-color:#311944"/>
							<stop  offset="1" style="stop-color:#893976"/>
						</linearGradient>
						<path fill="url(#SVGID_21_)" d="M2491.031,2428.363c0,20.006-46.738,46.537-104.652,49.666
							c-58.207,3.144-105.606-18.522-105.606-38.711c0-20.188,47.399-13.61,105.606-16.615
							C2444.293,2419.713,2491.031,2408.357,2491.031,2428.363z"/>
						<linearGradient id="SVGID_22_" gradientUnits="userSpaceOnUse" x1="2388.1973" y1="2503.2549" x2="2387.2786" y2="2356.27">
							<stop  offset="0" style="stop-color:#AB316D"/>
							<stop  offset="1" style="stop-color:#792D3D"/>
						</linearGradient>
						<path fill="url(#SVGID_22_)" d="M2347.656,2295.418c-16.049,0.739,20.965,116.208-37.382,135.318
							c-5.659,1.854-6.589,9.805-1.44,12.434c15.693,8.014,45.03,17.645,92.986,15.094c31.047-1.651,53.705-15.073,65.455-23.937
							c4.016-3.029,3.615-9.289-0.684-11.384c-17.807-8.675-42.567-37.965-35.174-128.395L2347.656,2295.418z"/>
						<linearGradient id="SVGID_23_" gradientUnits="userSpaceOnUse" x1="2375.8594" y1="2292.6006" x2="2400.2236" y2="1999.2917">
							<stop  offset="0" style="stop-color:#AB316D"/>
							<stop  offset="1" style="stop-color:#792D3D"/>
						</linearGradient>
						<path fill="url(#SVGID_23_)" d="M2298.83,2156.764c0.241,1.464,5.109,108.52,28.685,160.975
							c6.758,15.036,40.222,11.604,61.827,8.731c18.733-2.489,48.039,3.241,56.279-10.614
							c33.068-55.605,27.469-189.253,27.469-189.253s-16.939-43.921-86.659-40.11
							C2316.288,2090.324,2298.83,2156.764,2298.83,2156.764z"/>
						<linearGradient id="SVGID_24_" gradientUnits="userSpaceOnUse" x1="2293.5645" y1="2287.9902" x2="2317.6055" y2="1998.5729">
							<stop  offset="0" style="stop-color:#AB316D"/>
							<stop  offset="1" style="stop-color:#792D3D"/>
						</linearGradient>
						<path fill="url(#SVGID_24_)" d="M2315.307,2213.677c0,0-14.729-17.163-28.623-18.956
							c-13.912-1.796-22.983,35.995-3.995,59.506c18.958,23.473,40.833,2.344,40.833,2.344L2315.307,2213.677z"/>
						<linearGradient id="SVGID_25_" gradientUnits="userSpaceOnUse" x1="2469.8896" y1="2296.252" x2="2494.2332" y2="2003.193">
							<stop  offset="0" style="stop-color:#AB316D"/>
							<stop  offset="1" style="stop-color:#792D3D"/>
						</linearGradient>
						<path fill="url(#SVGID_25_)" d="M2457.857,2207.621c0,0,14.529-18.274,28.204-21.197c13.658-2.92,22.546,33.732,3.925,58.648
							c-18.651,24.956-40.249,5.901-40.249,5.901L2457.857,2207.621z"/>
						<linearGradient id="SVGID_26_" gradientUnits="userSpaceOnUse" x1="2369.6455" y1="2152.332" x2="2434.646" y2="1950.7369">
							<stop  offset="0" style="stop-color:#311944"/>
							<stop  offset="1" style="stop-color:#6B3976"/>
						</linearGradient>
						<path fill="url(#SVGID_26_)" d="M2303.778,2212.83c1.854,3.456,3.979,6.655,5.413,6.206
							c5.951-1.865-17.016-61.188,4.141-83.131c10.922-11.327,23.213-1.874,67.803-5.717c44.73-3.854,56.146-15.446,69.619-7.43
							c12.262,7.296,23.224,29.044,14.143,95.123c2.528-0.72,5.057-1.438,7.584-2.157c-3.404-21.373,0.313-35.106,4.56-43.836
							c3.099-6.367,8.702-14.641,8.266-26.245c-0.271-7.192-2.55-7.425-2.925-13.31c-1.101-17.252,17.736-22.628,18.645-39.734
							c0.699-13.169-10.129-15.756-8.148-29.571c1.683-11.746,10.135-14.231,8.799-22.624c-1.442-9.059-12.769-15.443-20.727-17.533
							c-8.121-2.133-11.059,0.646-15.823-2.628c-7.704-5.294-4.001-15.289-9.571-18.765c-9.926-6.192-29.682,20.554-42.469,14.494
							c-7.75-3.673-4.766-15.518-11.627-18.138c-13.271-5.066-36.758,34.531-46.219,29.704c-4.533-2.313-0.162-11.922-6.52-18.673
							c-7.469-7.932-25.422-7.318-33.615,1.626c-7.643,8.345-1.152,17.777-9.244,28.302c-7.271,9.457-15.675,5.966-23.893,13.635
							c-13.973,13.04-9.106,41.247-7.371,51.31c5.975,34.63,24.558,40.947,20.39,64.863c-1.067,6.119-3.55,12.979-1.777,22.826
							C2294.949,2201.088,2299.811,2208.221,2303.778,2212.83z"/>
						<g opacity="0.3">
							<linearGradient id="SVGID_27_" gradientUnits="userSpaceOnUse" x1="2369.835" y1="2151.7598" x2="2435.3125" y2="1948.6846">
								<stop  offset="0" style="stop-color:#311944"/>
								<stop  offset="1" style="stop-color:#6B3976"/>
							</linearGradient>
							<path fill="url(#SVGID_27_)" d="M2473.957,2130.954c-1.623-16.931,10.954-25.319,8.843-37.358
								c-1.696-9.671-12.223-18.037-22.119-19.544c-21.14-3.22-34.845,29.854-55.929,27.12
								c-16.33-2.117-14.519-22.762-32.975-30.365c-29.313-12.076-60.115,29.149-79.701,18.763
								c-5.893-3.125-11.854-11.499-12.277-34.801c-11.258,13.818-6.839,39.472-5.201,48.97
								c5.975,34.63,24.558,40.946,20.389,64.863c-1.066,6.119-3.549,12.979-1.776,22.826c1.739,9.66,6.601,16.793,10.568,21.402
								c1.854,3.456,3.979,6.655,5.413,6.206c5.951-1.865-17.016-61.188,4.141-83.131c10.922-11.328,23.213-1.874,67.803-5.717
								c44.73-3.854,56.145-15.446,69.619-7.43c12.262,7.296,23.224,29.044,14.143,95.123c2.528-0.72,5.057-1.438,7.585-2.156
								c-3.405-21.374,0.312-35.107,4.559-43.837c1.277-2.624,2.976-5.578,4.505-8.949c-0.322-5.646-1.24-11.823-3.166-18.276
								C2476.123,2137.094,2474.479,2136.401,2473.957,2130.954z"/>
						</g>
					</g>
				</g>
				<g>
					<path fill="#FFFFFF" d="M2273.998,2597.085c0,17.854-13.961,33.17-31.205,34.209c-17.27,1.041-31.288-12.628-31.288-30.53
						s14.019-33.221,31.288-34.214C2260.037,2565.559,2273.998,2579.23,2273.998,2597.085z"/>
					<path fill="#FFFFFF" d="M2419.217,2588.537c0,17.743-13.787,32.958-30.816,33.984c-17.055,1.027-30.898-12.561-30.898-30.352
						s13.844-33.009,30.898-33.988C2405.43,2557.202,2419.217,2570.794,2419.217,2588.537z"/>
					<path fill="#FFFFFF" d="M2562.637,2580.096c0,17.633-13.616,32.748-30.436,33.762c-16.843,1.015-30.516-12.494-30.516-30.175
						c0-17.68,13.673-32.798,30.516-33.767C2549.021,2548.949,2562.637,2562.462,2562.637,2580.096z"/>
				</g>
			</g>
			<path fill="#D8DEE8" d="M2252.995,1901.967v327.684c0,46.533-33.442,85.944-74.81,88.074l-246.906,12.775l-46.393,2.374
				l-19.373,1.013v-360.533c0-0.663,0-1.291,0.033-1.954c0.036-0.769,0.105-1.501,0.141-2.27
				c0.838-10.577,4.713-20.421,9.565-28.974c0.14-0.279,0.839-0.523,0.977-0.768c9.845-16.826,26.95-28.207,46.01-28.765
				l104.271-2.933c0.069,0.244,0.21,0.488,0.313,0.733L2252.995,1901.967z"/>
			<g>
				<path fill="#D8DEE8" d="M2215.12,1186.193c0-40.677-25.761-74.76-59.78-82.807c-1.215-0.287-2.563-0.538-3.799-0.758
					c-3.705-0.66-7.564-1.011-11.43-1.035l-714.494-4.179l-704.999-4.124c-1.48-0.008-2.96,0.023-4.423,0.093
					c-18.804,0.898-36.028,8.215-49.753,19.922c-0.25,0.214-0.504,0.427-0.754,0.644c-1.97,1.72-3.869,3.528-5.685,5.425
					c-0.043,0.044-0.089,0.085-0.13,0.13c-1.073,1.126-2.113,2.288-3.13,3.472c-13.703,15.984-22.065,37.186-22.065,60.502v65.055
					l0,0v1020.955c0,7.826,0.944,15.371,2.713,22.522c1.06,4.292,2.421,8.44,4.052,12.425c10.858,26.5,33.821,45.658,61.674,50.309
					c5.648,0.943,11.495,1.294,17.485,0.984l1078.88-55.869v-0.001l340.813-17.639c41.254-2.137,74.823-41.551,74.823-88.04
					v-947.604l0,0V1186.193z"/>
				<g>
					<path fill="#FFFFFF" d="M2218.087,1185.681v1009.046c0,46.535-33.457,85.965-74.812,88.084l-345.775,17.885l-1076.717,55.752
						c-44.132,2.279-83.05-30.838-87.974-75.813c-0.392-3.427-3.05-1097.712-3.05-1097.712c0-18.355,7.662-35.44,16.579-49.691
						c0.252-0.405,1.705-0.779,1.956-1.158c15.524-23.985,42.282-39.627,71.873-39.441l164.101,0.96l1258.872,7.365
						C2184.494,1101.204,2218.087,1139.12,2218.087,1185.681z"/>
					<linearGradient id="SVGID_28_" gradientUnits="userSpaceOnUse" x1="662.2437" y1="1724.5674" x2="2194.1465" y2="1724.5674">
						<stop  offset="0" style="stop-color:#FFFFFF"/>
						<stop  offset="0.9964" style="stop-color:#EBEFF2"/>
					</linearGradient>
					<path fill="url(#SVGID_28_)" d="M720.781,2327.555c-32.239,1.626-58.538-24.734-58.538-58.768V1182.966
						c0-34.033,26.299-61.602,58.538-61.456l1422.437,6.439c28.113,0.127,50.929,25.99,50.929,57.652v1010.192
						c0,31.663-22.815,58.573-50.929,59.991L720.781,2327.555z"/>
					<path fill="#D8DEE8" d="M2143.218,1100.946l-1422.437-8.312c-47.47-0.277-86.104,40.144-86.104,90.284v65.125l1583.272-1.958
						v-60.443C2217.949,1139.107,2184.559,1101.188,2143.218,1100.946z"/>
					<path fill="#FFFFFF" d="M787.805,1171.952c0,14.918-12.498,27-27.935,26.984c-15.458-0.015-28.006-12.152-28.006-27.108
						c0-14.957,12.547-27.038,28.006-26.984C775.307,1144.897,787.805,1157.033,787.805,1171.952z"/>
					<path fill="#FFFFFF" d="M885.354,1172.168c0,14.852-12.387,26.879-27.686,26.864c-15.32-0.015-27.756-12.097-27.756-26.987
						c0-14.889,12.436-26.917,27.756-26.864C872.968,1145.234,885.354,1157.316,885.354,1172.168z"/>
					<path fill="#FFFFFF" d="M982.038,1172.382c0,14.786-12.277,26.759-27.44,26.745c-15.185-0.015-27.51-12.043-27.51-26.867
						c0-14.823,12.325-26.797,27.51-26.745C969.761,1145.568,982.038,1157.597,982.038,1172.382z"/>
					<polygon fill="#D8DEE8" points="2130.727,2199.223 735.047,2265.752 735.047,1411.028 2130.727,1398.917 					"/>
					<g opacity="0.5">
						<polygon fill="#FFFFFF" points="1484.792,1319.035 735.048,1322.514 735.048,1368.685 1484.792,1363.627 						"/>
						<polygon fill="#FFFFFF" points="2050.896,1316.409 2050.896,1359.808 2130.727,1359.27 2130.727,1316.039 						"/>
					</g>
					<g opacity="0.5">
						<path fill="#FFFFFF" d="M1797.471,2300.68l-1076.693,55.76c-44.132,2.278-83.313-30.822-88.236-75.798
							c-0.029-1.002-2.782-1098.207-2.782-1098.207c0-18.139,7.705-35.033,16.313-49.204c0.252-0.405,1.837-0.779,2.088-1.157
							c15.44-24.635,42.543-40.762,72.467-40.573l163.222,0.963c0.11,0.376,0.414,0.754,0.551,1.13
							c3.042,9.435,6.469,19.003,10.139,28.704c14.452,38.452,33.794,78.686,59.715,118.157c1.58,2.434,3.209,4.814,4.843,7.194
							c19.085,28.161,39.345,52.401,60.511,73.556c16.905,16.923,34.388,31.849,52.301,45.205
							c20.985,15.686,42.583,29.16,64.57,41.146c158.19,86.28,335.417,94.017,452.734,270.889
							c100.387,151.353,28.499,233.866,125.552,466.561c10.541,25.282,21.866,49.396,33.87,72.423
							c10.206,19.662,20.888,38.537,31.991,56.65C1786.128,2283.145,1791.775,2292.019,1797.471,2300.68z"/>
					</g>
				</g>
				<g>
					<path fill="#FFFFFF" d="M1282.356,2113.158c0,31.803-24.86,58.659-55.61,59.989c-30.843,1.334-55.915-23.504-55.915-55.48
						c0-31.978,25.072-58.842,55.915-60.002C1257.496,2056.51,1282.356,2081.355,1282.356,2113.158z"/>
					<path fill="#FFFFFF" d="M1505.778,2104.127c0,31.453-24.317,58.002-54.393,59.303c-30.167,1.306-54.688-23.27-54.688-54.894
						s24.521-58.182,54.688-59.315C1481.461,2048.09,1505.778,2072.674,1505.778,2104.127z"/>
					<path fill="#FFFFFF" d="M1724.343,2095.291c0,31.111-23.79,57.36-53.215,58.634c-29.512,1.276-53.501-23.042-53.501-54.32
						s23.989-57.535,53.501-58.646C1700.553,2039.854,1724.343,2064.18,1724.343,2095.291z"/>
				</g>
				<g>
					<defs>
						<polygon id="SVGID_29_" points="2050.527,2200.573 818.265,2251.755 818.265,1090.667 2050.527,1097.415 						"/>
					</defs>
					<clipPath id="SVGID_30_">
						<use xlink:href="#SVGID_29_"  overflow="visible"/>
					</clipPath>
					<g clip-path="url(#SVGID_30_)">
						<linearGradient id="SVGID_31_" gradientUnits="userSpaceOnUse" x1="1893.7129" y1="1216.5693" x2="1242.8748" y2="2497.6953">
							<stop  offset="0" style="stop-color:#FF9085"/>
							<stop  offset="1" style="stop-color:#FB6FBB"/>
						</linearGradient>
						<path fill="url(#SVGID_31_)" d="M1466.827,2301.958c-377.801,19.787-513.052,76.025-574.826-3.854
							c-57.125-73.867-9.78-349.346,58.095-427.936c106.542-123.359,275.661-132.833,503.288-143.913
							c210.206-10.232,337.928-16.449,437.818,71.439c92.627,81.499,151.406,368.073,94.095,450.807
							C1931.863,2325.637,1816.813,2283.627,1466.827,2301.958z"/>
						<linearGradient id="SVGID_32_" gradientUnits="userSpaceOnUse" x1="1434.4307" y1="2163.6094" x2="1445.2263" y2="1574.1892">
							<stop  offset="0" style="stop-color:#311944"/>
							<stop  offset="0.5554" style="stop-color:#6F2B60"/>
							<stop  offset="1" style="stop-color:#A03976"/>
						</linearGradient>
						<path fill="url(#SVGID_32_)" d="M1328.308,1728.474l-44.125,12.181c-10.84,2.993-15.792,15.602-9.747,24.842
							c30.09,45.994,109.422,160.873,158.837,173.152c50.875,12.643,145.345-137.003,176.611-189.349
							c5.394-9.031,1.075-20.586-8.795-23.548l-31.629-9.493c-25.938-7.784-53.298-10.376-80.552-7.614l-119.434,12.108
							C1355.598,1722.16,1341.826,1724.743,1328.308,1728.474z"/>
						<linearGradient id="SVGID_33_" gradientUnits="userSpaceOnUse" x1="1451.9932" y1="1770.5825" x2="1492.8146" y2="2035.9208">
							<stop  offset="0" style="stop-color:#FFC444"/>
							<stop  offset="0.9964" style="stop-color:#F36F56"/>
						</linearGradient>
						<path fill="url(#SVGID_33_)" d="M1360.96,1557.496c0,0,24.12,172.899-9.246,190.165l94.742,100.979l95.219-124.014
							c0,0-35.905-26.453-26.439-169.243L1360.96,1557.496z"/>
						<linearGradient id="SVGID_34_" gradientUnits="userSpaceOnUse" x1="1432.6558" y1="1363.2041" x2="1422.4065" y2="2039.6174">
							<stop  offset="0" style="stop-color:#FFC444"/>
							<stop  offset="0.9964" style="stop-color:#F36F56"/>
						</linearGradient>
						<path fill="url(#SVGID_34_)" d="M1304.761,1309.496c-3.45,4.662-48.356,224.265,106.354,245.12
							c152.754,20.591,159.443-139.6,157.512-207.51c-1.931-67.922-71.555-92.503-111.575-97.221
							C1416.898,1245.152,1316.994,1292.965,1304.761,1309.496z"/>
						
							<linearGradient id="SVGID_35_" gradientUnits="userSpaceOnUse" x1="1427.1484" y1="1407.5186" x2="1416.8778" y2="2085.3408" gradientTransform="matrix(0.9936 -0.1133 0.1133 0.9936 -309.5576 89.9668)">
							<stop  offset="0" style="stop-color:#FFC444"/>
							<stop  offset="0.9964" style="stop-color:#F36F56"/>
						</linearGradient>
						<path fill="url(#SVGID_35_)" d="M1295.759,1437.445c0,0-7.771-35.754-34.403-13.201
							c-26.691,22.604,15.727,81.525,50.605,78.677L1295.759,1437.445z"/>
						<linearGradient id="SVGID_36_" gradientUnits="userSpaceOnUse" x1="1573.5776" y1="1364.3599" x2="1563.3491" y2="2039.4055">
							<stop  offset="0" style="stop-color:#FFC444"/>
							<stop  offset="0.9964" style="stop-color:#F36F56"/>
						</linearGradient>
						<path fill="url(#SVGID_36_)" d="M1563.951,1410.434c-4.366,3.006-16.901,86.293-16.901,86.293s21.922,2.347,37.768-27.652
							C1600.644,1439.116,1608.244,1379.936,1563.951,1410.434z"/>
						<path fill="#26264F" d="M1623.468,1251.544c-15.922-26.643-56.235-13.997-68.026-39.754
							c-9.916-21.659,13.377-41.974,0.886-60.708c-10.458-15.685-36.061-15.391-40.618-15.338
							c-34.698,0.4-42.654,27.98-67.47,27.291c-30.375-0.844-31.56-42.449-71.844-60.17c-39.219-17.252-96.767-3.662-120.104,28.3
							c-18.172,24.888-2.711,43.263-26.549,75.286c-16.425,22.064-30.963,23.042-39.137,44.663
							c-7.682,20.32-2.483,39.657,1.582,54.014c9.735,34.394,27.867,49.491,55.21,85.912c12.227,16.288,28.974,40.406,46.236,72.169
							c7.224,19.132,17.556,48.728,27.11,86.143c8.685,34.007,8.158,40.926,16.267,51.852
							c27.913,37.612,91.38,32.858,117.987,30.865c30.437-2.28,68.215-5.109,87.176-31.857c10.237-14.441,8.949-27.33,11.324-61.873
							c1.694-24.651,5.19-59.249,13.132-101.229c0.153,0.003,3.532-19.24,12.334-42.951c10.985-29.592,22.381-34.361,34.75-64.901
							C1623.627,1304.789,1636.416,1273.212,1623.468,1251.544z M1497.718,1482.935c-18.779,5.289-31.465,0.854-56.993-0.345
							c-51.219-2.406-67.461,21.802-91.752,11.506c-10.141-4.299-33.625-16.402-38.603-40.042
							c-2.88-15.344-4.906-36.324-1.597-60.649c4.042-29.713,8.702-63.981,32.54-79.21c34.507-22.045,78.434,15.488,109.882-9.016
							c12-9.35,16.822-23.554,19.011-34.352c6.962,2.392,62.185,22.423,82.448,81.46c12.476,36.345,5.329,68.872-0.747,86.582
							C1540.498,1456.286,1523.067,1475.795,1497.718,1482.935z"/>
						<linearGradient id="SVGID_37_" gradientUnits="userSpaceOnUse" x1="1466.5483" y1="1233.1909" x2="1437.2844" y2="1485.837">
							<stop  offset="0" style="stop-color:#FFC444"/>
							<stop  offset="0.9964" style="stop-color:#F36F56"/>
						</linearGradient>
						<path fill="url(#SVGID_37_)" d="M1391.728,1520.126c19.785,5.888,49.496,9.669,82.686-3.345
							c3.441-1.349,6.379,2.386,3.51,4.469c-11.852,8.604-29.181,17.808-48.06,16.649c-15.624-0.958-29.992-6.811-41.07-12.958
							C1385.617,1523.18,1388.128,1519.055,1391.728,1520.126z"/>
					</g>
				</g>
				<g>
					<path fill="#FFFFFF" d="M1274.488,2112.929c0,26.441-21.567,48.706-48.225,49.732c-26.716,1.028-48.417-19.657-48.417-46.204
						c0-26.546,21.701-48.815,48.417-49.738C1252.92,2065.798,1274.488,2086.487,1274.488,2112.929z"/>
					<path fill="#FFFFFF" d="M1498.103,2104.764c0,26.198-21.172,48.251-47.34,49.258c-26.226,1.009-47.527-19.492-47.527-45.794
						c0-26.301,21.301-48.358,47.527-49.264C1476.931,2058.06,1498.103,2078.566,1498.103,2104.764z"/>
					<path fill="#FFFFFF" d="M1717.639,2096.748c0,25.959-20.788,47.803-46.48,48.791c-25.749,0.991-46.662-19.33-46.662-45.391
						s20.914-47.908,46.662-48.798C1696.851,2050.463,1717.639,2070.789,1717.639,2096.748z"/>
				</g>
			</g>
		</g>
		<g>
			<g>
				
					<linearGradient id="SVGID_38_" gradientUnits="userSpaceOnUse" x1="-3937.2017" y1="1086.583" x2="-3282.5166" y2="1086.583" gradientTransform="matrix(1 0 0 1 4428.124 0)">
					<stop  offset="0" style="stop-color:#AA80F9"/>
					<stop  offset="0.9964" style="stop-color:#6165D7"/>
				</linearGradient>
				<path fill="url(#SVGID_38_)" d="M1098.177,1215.864c30.098-37.693,47.43-81.945,47.43-129.281
					c0-137.644-146.557-249.227-327.342-249.227c-180.786,0-327.343,111.583-327.343,249.227s146.557,249.227,327.343,249.227
					c67.756,0,130.704-15.674,182.93-42.52c34.521,5.89,88.107,15.785,116.384,21.048c8.326,1.549,15.148-6.593,12.167-14.52
					L1098.177,1215.864z"/>
				<g opacity="0.3">
					
						<linearGradient id="SVGID_39_" gradientUnits="userSpaceOnUse" x1="-3850.7886" y1="914.3643" x2="-3282.6624" y2="1662.5745" gradientTransform="matrix(1 0 0 1 4428.124 0)">
						<stop  offset="0" style="stop-color:#AA80F9"/>
						<stop  offset="0.9964" style="stop-color:#6165D7"/>
					</linearGradient>
					<path fill="url(#SVGID_39_)" d="M997.396,1139.324c-73.401-30.851-154.117,34.271-204.58-11.159
						c-50.869-45.795,4.084-136.336-44.635-200.859c-23.229-30.765-62.257-45.32-106.904-50.408
						c-90.45,44.347-150.354,121.688-150.354,209.685c0,137.644,146.557,249.227,327.343,249.227
						c67.756,0,130.704-15.674,182.93-42.52c27.237,4.647,66.335,11.786,95.515,17.177
						C1075.185,1198.872,1035.593,1155.379,997.396,1139.324z"/>
				</g>
			</g>
			<g>
				<path fill="#FFFFFF" d="M1035.352,995.499c0,6.94-5.626,12.567-12.566,12.567H624.839c-6.941,0-12.567-5.626-12.567-12.567l0,0
					c0-6.94,5.626-12.567,12.567-12.567h397.946C1029.726,982.932,1035.352,988.558,1035.352,995.499L1035.352,995.499z"/>
				<g>
					<path fill="#FFFFFF" d="M1035.352,1070.899c0,6.94-5.626,12.566-12.566,12.566H624.839c-6.941,0-12.567-5.626-12.567-12.566
						l0,0c0-6.94,5.626-12.567,12.567-12.567h397.946C1029.726,1058.332,1035.352,1063.958,1035.352,1070.899L1035.352,1070.899z"/>
					<path fill="#FFFFFF" d="M846.851,1146.299c0,6.941-5.626,12.567-12.567,12.567H624.839c-6.941,0-12.567-5.626-12.567-12.567
						l0,0c0-6.94,5.626-12.566,12.567-12.566h209.445C841.225,1133.732,846.851,1139.358,846.851,1146.299L846.851,1146.299z"/>
				</g>
			</g>
		</g>
	</g>
</g>
</svg>
